<?xml version="1.0" encoding="iso-8859-1"?>
<!-- Generator: Adobe Illustrator 19.0.0, SVG Export Plug-In . SVG Version: 6.00 Build 0)  -->
<svg version="1.1" id="Layer_1" xmlns="http://www.w3.org/2000/svg" xmlns:xlink="http://www.w3.org/1999/xlink" x="0px" y="0px"
	 viewBox="0 0 512 512" style="enable-background:new 0 0 512 512;" xml:space="preserve">
<path style="fill:#D9E6E8;" d="M256,0C114.616,0,0,114.616,0,256s114.616,256,256,256s256-114.616,256-256S397.384,0,256,0z"/>
<path style="fill:#263740;" d="M216,156c-4.4,0-9.608-3.22-11.58-7.156l-8.848-17.688C193.608,127.22,188.4,124,184,124H76
	c-4.4,0-8,3.6-8,8v16c0,4.4,0,11.6,0,16v220c0,4.4,3.6,8,8,8h360c4.4,0,8-3.6,8-8V164c0-4.4-3.6-8-8-8H216z"/>
<g>
	<rect x="224" y="156" style="fill:#1E2C33;" width="204" height="224"/>
	<path style="fill:#1E2C33;" d="M187.58,131.156l8.848,17.688C198.392,152.78,203.6,156,208,156h8c-4.4,0-9.608-3.22-11.58-7.156
		l-8.848-17.688C193.608,127.22,188.4,124,184,124h-8C180.4,124,185.608,127.22,187.58,131.156z"/>
	<path style="fill:#1E2C33;" d="M436,156h-8c4.4,0,8,3.6,8,8v220c0,4.4-3.6,8-8,8h8c4.4,0,8-3.6,8-8V164
		C444,159.6,440.4,156,436,156z"/>
</g>
<rect x="216" y="80" style="fill:#E6E6E6;" width="204" height="300"/>
<rect x="224" y="88" style="fill:#FFFFFF;" width="188" height="284"/>
<rect x="224" y="196" style="fill:#F5F5F5;" width="188" height="4"/>
<path style="fill:#EFC822;" d="M176,200l-72,72v120h332c4.4,0,8-3.6,8-8V200H176z"/>
<path style="fill:#F8CF25;" d="M176,204l-68,68v120h328c4.4,0,8-3.6,8-8V204H176z"/>
<g>
	<path style="fill:#EFC822;" d="M436,204v180c0,4.4-3.6,8-8,8h8c4.4,0,8-3.6,8-8V204H436z"/>
	<polygon style="fill:#EFC822;" points="180,276 108,276 108,272 176,204 180,204 	"/>
</g>
<polygon style="fill:#F8DB63;" points="176,272 108,272 176,204 "/>
<g>
	<rect x="240" y="108" style="fill:#E6E6E6;" width="60" height="8"/>
	<rect x="240" y="124" style="fill:#E6E6E6;" width="152" height="8"/>
	<rect x="240" y="140" style="fill:#E6E6E6;" width="152" height="8"/>
	<rect x="240" y="156" style="fill:#E6E6E6;" width="152" height="8"/>
	<rect x="240" y="172" style="fill:#E6E6E6;" width="152" height="8"/>
</g>
<g>
</g>
<g>
</g>
<g>
</g>
<g>
</g>
<g>
</g>
<g>
</g>
<g>
</g>
<g>
</g>
<g>
</g>
<g>
</g>
<g>
</g>
<g>
</g>
<g>
</g>
<g>
</g>
<g>
</g>
</svg>
